<mxfile host="app.diagrams.net" modified="2022-07-17T01:19:54.580Z" agent="5.0 (Macintosh; Intel Mac OS X 10_15_7) AppleWebKit/537.36 (KHTML, like Gecko) Chrome/103.0.0.0 Safari/537.36" etag="2PWtaYSxGQf37cfhnxVE" version="20.1.1" type="github">
  <diagram id="C5RBs43oDa-KdzZeNtuy" name="Page-1">
    <mxGraphModel dx="1298" dy="755" grid="1" gridSize="10" guides="1" tooltips="1" connect="1" arrows="1" fold="1" page="1" pageScale="1" pageWidth="827" pageHeight="1169" math="0" shadow="0">
      <root>
        <mxCell id="WIyWlLk6GJQsqaUBKTNV-0" />
        <mxCell id="WIyWlLk6GJQsqaUBKTNV-1" parent="WIyWlLk6GJQsqaUBKTNV-0" />
        <mxCell id="J1axyf_bsP1kOrg1EWEu-9" value="while(true)" style="edgeStyle=orthogonalEdgeStyle;rounded=0;orthogonalLoop=1;jettySize=auto;html=1;" edge="1" parent="WIyWlLk6GJQsqaUBKTNV-1" source="J1axyf_bsP1kOrg1EWEu-10" target="J1axyf_bsP1kOrg1EWEu-14">
          <mxGeometry relative="1" as="geometry" />
        </mxCell>
        <mxCell id="J1axyf_bsP1kOrg1EWEu-10" value="启动状态管理机&lt;br&gt;DLedgerLeaderElector#startup" style="rounded=1;whiteSpace=wrap;html=1;fontSize=12;glass=0;strokeWidth=1;shadow=0;" vertex="1" parent="WIyWlLk6GJQsqaUBKTNV-1">
          <mxGeometry x="140" y="90" width="180" height="40" as="geometry" />
        </mxCell>
        <mxCell id="J1axyf_bsP1kOrg1EWEu-11" value="" style="edgeStyle=orthogonalEdgeStyle;rounded=0;orthogonalLoop=1;jettySize=auto;html=1;" edge="1" parent="WIyWlLk6GJQsqaUBKTNV-1" source="J1axyf_bsP1kOrg1EWEu-12" target="J1axyf_bsP1kOrg1EWEu-10">
          <mxGeometry relative="1" as="geometry" />
        </mxCell>
        <mxCell id="J1axyf_bsP1kOrg1EWEu-12" value="dledger" style="ellipse;whiteSpace=wrap;html=1;aspect=fixed;" vertex="1" parent="WIyWlLk6GJQsqaUBKTNV-1">
          <mxGeometry x="205" y="10" width="50" height="50" as="geometry" />
        </mxCell>
        <mxCell id="J1axyf_bsP1kOrg1EWEu-13" value="" style="edgeStyle=orthogonalEdgeStyle;rounded=0;orthogonalLoop=1;jettySize=auto;html=1;" edge="1" parent="WIyWlLk6GJQsqaUBKTNV-1" source="J1axyf_bsP1kOrg1EWEu-14" target="J1axyf_bsP1kOrg1EWEu-16">
          <mxGeometry relative="1" as="geometry" />
        </mxCell>
        <mxCell id="J1axyf_bsP1kOrg1EWEu-14" value="DLedgerLeaderElector#maintainState&lt;br&gt;(状态驱动)" style="rounded=0;whiteSpace=wrap;html=1;" vertex="1" parent="WIyWlLk6GJQsqaUBKTNV-1">
          <mxGeometry x="125" y="166" width="210" height="40" as="geometry" />
        </mxCell>
        <mxCell id="J1axyf_bsP1kOrg1EWEu-15" value="" style="edgeStyle=orthogonalEdgeStyle;rounded=0;orthogonalLoop=1;jettySize=auto;html=1;" edge="1" parent="WIyWlLk6GJQsqaUBKTNV-1" source="J1axyf_bsP1kOrg1EWEu-16" target="J1axyf_bsP1kOrg1EWEu-17">
          <mxGeometry relative="1" as="geometry" />
        </mxCell>
        <mxCell id="J1axyf_bsP1kOrg1EWEu-16" value="memberState&lt;br&gt;is&lt;br&gt;Leader？" style="rhombus;whiteSpace=wrap;html=1;rounded=0;" vertex="1" parent="WIyWlLk6GJQsqaUBKTNV-1">
          <mxGeometry x="170" y="266" width="120" height="104" as="geometry" />
        </mxCell>
        <mxCell id="J1axyf_bsP1kOrg1EWEu-17" value="DLedgerLeaderElector#maintainAsLeader" style="whiteSpace=wrap;html=1;rounded=0;" vertex="1" parent="WIyWlLk6GJQsqaUBKTNV-1">
          <mxGeometry x="370" y="288" width="240" height="60" as="geometry" />
        </mxCell>
      </root>
    </mxGraphModel>
  </diagram>
</mxfile>
